<?xml version="1.0" encoding="UTF-8"?>
<svg xmlns="http://www.w3.org/2000/svg" version="1.1" width="500" height="500" viewBox="0 0 500 500"><rect x="0" y="0" width="500" height="500" fill="#ffffff"/><g transform="scale(20)"><g transform="translate(0,0)"><path fill-rule="evenodd" d="M8 0L8 1L9 1L9 0ZM14 0L14 1L15 1L15 0ZM10 1L10 3L9 3L9 2L8 2L8 5L9 5L9 6L8 6L8 7L9 7L9 8L8 8L8 9L7 9L7 8L6 8L6 9L5 9L5 10L4 10L4 11L3 11L3 10L2 10L2 9L4 9L4 8L0 8L0 11L1 11L1 10L2 10L2 13L1 13L1 15L0 15L0 16L1 16L1 15L2 15L2 16L3 16L3 17L8 17L8 18L10 18L10 19L11 19L11 18L12 18L12 21L11 21L11 20L10 20L10 22L11 22L11 23L12 23L12 24L14 24L14 25L15 25L15 24L17 24L17 25L18 25L18 24L17 24L17 23L19 23L19 24L20 24L20 23L21 23L21 24L22 24L22 25L25 25L25 24L23 24L23 23L24 23L24 22L25 22L25 15L24 15L24 16L19 16L19 15L18 15L18 16L16 16L16 15L14 15L14 14L15 14L15 13L16 13L16 14L17 14L17 9L18 9L18 8L17 8L17 9L16 9L16 8L13 8L13 11L12 11L12 10L11 10L11 11L12 11L12 14L13 14L13 15L11 15L11 17L8 17L8 16L6 16L6 15L7 15L7 14L8 14L8 15L10 15L10 14L11 14L11 13L10 13L10 12L9 12L9 13L10 13L10 14L8 14L8 12L6 12L6 11L9 11L9 10L10 10L10 9L9 9L9 8L10 8L10 7L11 7L11 6L10 6L10 3L11 3L11 5L16 5L16 7L17 7L17 4L15 4L15 3L14 3L14 2L13 2L13 1ZM16 1L16 3L17 3L17 1ZM11 2L11 3L12 3L12 4L14 4L14 3L13 3L13 2ZM9 6L9 7L10 7L10 6ZM12 6L12 7L13 7L13 6ZM14 6L14 7L15 7L15 6ZM20 8L20 9L19 9L19 11L18 11L18 14L19 14L19 13L20 13L20 15L21 15L21 14L22 14L22 15L23 15L23 14L22 14L22 13L24 13L24 14L25 14L25 12L23 12L23 8ZM24 8L24 10L25 10L25 8ZM6 9L6 10L5 10L5 11L6 11L6 10L7 10L7 9ZM14 9L14 10L15 10L15 11L14 11L14 12L13 12L13 13L14 13L14 12L15 12L15 11L16 11L16 9ZM20 9L20 10L21 10L21 9ZM21 11L21 13L22 13L22 11ZM3 12L3 14L2 14L2 15L3 15L3 14L5 14L5 15L6 15L6 14L7 14L7 13L6 13L6 14L5 14L5 13L4 13L4 12ZM13 15L13 17L12 17L12 18L13 18L13 21L12 21L12 22L13 22L13 23L14 23L14 19L16 19L16 16L14 16L14 15ZM14 17L14 18L15 18L15 17ZM17 17L17 20L20 20L20 17ZM21 17L21 18L23 18L23 17ZM18 18L18 19L19 19L19 18ZM22 19L22 21L21 21L21 23L22 23L22 22L23 22L23 19ZM15 20L15 23L17 23L17 22L16 22L16 20ZM8 21L8 25L11 25L11 24L10 24L10 23L9 23L9 21ZM0 0L0 7L7 7L7 0ZM1 1L1 6L6 6L6 1ZM2 2L2 5L5 5L5 2ZM18 0L18 7L25 7L25 0ZM19 1L19 6L24 6L24 1ZM20 2L20 5L23 5L23 2ZM0 18L0 25L7 25L7 18ZM1 19L1 24L6 24L6 19ZM2 20L2 23L5 23L5 20Z" fill="#000000"/></g></g></svg>
