<?xml version="1.0" encoding="UTF-8"?>
<svg xmlns="http://www.w3.org/2000/svg" version="1.1" width="500" height="500" viewBox="0 0 500 500"><rect x="0" y="0" width="500" height="500" fill="#ffffff"/><g transform="scale(20)"><g transform="translate(0,0)"><path fill-rule="evenodd" d="M8 0L8 4L9 4L9 5L8 5L8 7L9 7L9 6L10 6L10 9L11 9L11 8L13 8L13 6L14 6L14 8L16 8L16 7L17 7L17 6L16 6L16 7L15 7L15 5L14 5L14 4L16 4L16 5L17 5L17 3L16 3L16 2L15 2L15 0L13 0L13 1L12 1L12 2L11 2L11 1L10 1L10 0ZM16 0L16 1L17 1L17 0ZM9 1L9 2L10 2L10 3L11 3L11 2L10 2L10 1ZM13 1L13 4L10 4L10 5L11 5L11 7L12 7L12 6L13 6L13 4L14 4L14 1ZM0 8L0 9L1 9L1 10L2 10L2 11L0 11L0 14L1 14L1 12L2 12L2 14L3 14L3 13L4 13L4 14L5 14L5 15L3 15L3 16L0 16L0 17L4 17L4 16L6 16L6 17L8 17L8 18L9 18L9 19L8 19L8 21L10 21L10 24L9 24L9 23L8 23L8 25L10 25L10 24L13 24L13 23L12 23L12 22L11 22L11 21L10 21L10 20L13 20L13 21L14 21L14 20L15 20L15 19L16 19L16 21L17 21L17 22L16 22L16 24L15 24L15 23L14 23L14 24L15 24L15 25L16 25L16 24L17 24L17 25L18 25L18 23L20 23L20 22L21 22L21 21L23 21L23 23L22 23L22 24L23 24L23 25L25 25L25 24L24 24L24 22L25 22L25 21L24 21L24 20L25 20L25 19L24 19L24 17L23 17L23 18L22 18L22 20L21 20L21 17L22 17L22 16L23 16L23 15L24 15L24 13L25 13L25 11L24 11L24 9L25 9L25 8L21 8L21 9L20 9L20 8L19 8L19 9L20 9L20 12L17 12L17 13L16 13L16 11L17 11L17 10L18 10L18 9L13 9L13 11L14 11L14 12L13 12L13 15L12 15L12 14L11 14L11 13L12 13L12 12L11 12L11 13L9 13L9 12L10 12L10 11L12 11L12 10L9 10L9 11L8 11L8 10L5 10L5 9L7 9L7 8L4 8L4 9L2 9L2 8ZM21 9L21 10L23 10L23 9ZM3 10L3 11L4 11L4 13L5 13L5 14L7 14L7 15L6 15L6 16L8 16L8 17L9 17L9 16L10 16L10 19L9 19L9 20L10 20L10 19L11 19L11 17L12 17L12 18L13 18L13 20L14 20L14 19L15 19L15 18L16 18L16 16L17 16L17 14L20 14L20 13L17 13L17 14L16 14L16 13L15 13L15 12L14 12L14 15L13 15L13 17L12 17L12 15L11 15L11 14L10 14L10 15L9 15L9 16L8 16L8 11L5 11L5 10ZM14 10L14 11L15 11L15 10ZM21 11L21 13L22 13L22 11ZM5 12L5 13L7 13L7 12ZM23 12L23 13L24 13L24 12ZM15 14L15 15L14 15L14 16L15 16L15 15L16 15L16 14ZM21 14L21 15L18 15L18 16L22 16L22 15L23 15L23 14ZM17 17L17 20L20 20L20 17ZM18 18L18 19L19 19L19 18ZM17 22L17 23L18 23L18 22ZM19 24L19 25L20 25L20 24ZM0 0L0 7L7 7L7 0ZM1 1L1 6L6 6L6 1ZM2 2L2 5L5 5L5 2ZM18 0L18 7L25 7L25 0ZM19 1L19 6L24 6L24 1ZM20 2L20 5L23 5L23 2ZM0 18L0 25L7 25L7 18ZM1 19L1 24L6 24L6 19ZM2 20L2 23L5 23L5 20Z" fill="#000000"/></g></g></svg>
