<?xml version="1.0" encoding="UTF-8"?>
<svg xmlns="http://www.w3.org/2000/svg" version="1.1" width="500" height="500" viewBox="0 0 500 500"><rect x="0" y="0" width="500" height="500" fill="#ffffff"/><g transform="scale(20)"><g transform="translate(0,0)"><path fill-rule="evenodd" d="M11 0L11 1L10 1L10 2L9 2L9 1L8 1L8 2L9 2L9 3L8 3L8 4L10 4L10 3L11 3L11 1L12 1L12 0ZM13 0L13 1L14 1L14 0ZM15 0L15 2L16 2L16 3L14 3L14 5L12 5L12 4L11 4L11 5L10 5L10 7L11 7L11 5L12 5L12 8L6 8L6 9L9 9L9 10L6 10L6 11L7 11L7 12L5 12L5 15L4 15L4 14L3 14L3 12L4 12L4 11L2 11L2 12L1 12L1 11L0 11L0 12L1 12L1 13L0 13L0 17L1 17L1 13L2 13L2 17L3 17L3 15L4 15L4 16L6 16L6 17L7 17L7 16L6 16L6 15L9 15L9 17L8 17L8 19L10 19L10 21L9 21L9 20L8 20L8 25L11 25L11 23L9 23L9 22L10 22L10 21L11 21L11 22L12 22L12 23L13 23L13 22L15 22L15 23L14 23L14 25L16 25L16 24L17 24L17 25L19 25L19 24L18 24L18 23L20 23L20 25L22 25L22 24L21 24L21 23L20 23L20 22L24 22L24 24L23 24L23 25L25 25L25 21L24 21L24 20L23 20L23 21L21 21L21 19L22 19L22 18L21 18L21 16L22 16L22 17L25 17L25 16L22 16L22 13L21 13L21 12L20 12L20 13L19 13L19 12L18 12L18 11L19 11L19 10L20 10L20 11L22 11L22 10L23 10L23 14L24 14L24 15L25 15L25 14L24 14L24 13L25 13L25 12L24 12L24 11L25 11L25 10L23 10L23 9L24 9L24 8L23 8L23 9L22 9L22 8L21 8L21 9L22 9L22 10L20 10L20 8L19 8L19 10L18 10L18 8L13 8L13 6L14 6L14 7L15 7L15 6L16 6L16 7L17 7L17 6L16 6L16 5L15 5L15 4L17 4L17 2L16 2L16 1L17 1L17 0ZM8 5L8 7L9 7L9 5ZM0 8L0 10L5 10L5 8ZM12 8L12 9L13 9L13 11L12 11L12 10L11 10L11 9L10 9L10 11L11 11L11 12L10 12L10 13L9 13L9 12L7 12L7 13L6 13L6 14L7 14L7 13L9 13L9 14L10 14L10 15L11 15L11 20L12 20L12 18L13 18L13 20L14 20L14 19L15 19L15 20L16 20L16 17L15 17L15 18L14 18L14 16L15 16L15 14L17 14L17 16L20 16L20 14L21 14L21 13L20 13L20 14L19 14L19 15L18 15L18 14L17 14L17 13L15 13L15 14L14 14L14 13L12 13L12 14L10 14L10 13L11 13L11 12L14 12L14 11L15 11L15 10L14 10L14 9L13 9L13 8ZM16 10L16 12L17 12L17 11L18 11L18 10ZM13 14L13 15L14 15L14 14ZM9 17L9 18L10 18L10 17ZM17 17L17 20L20 20L20 17ZM18 18L18 19L19 19L19 18ZM23 18L23 19L25 19L25 18ZM12 21L12 22L13 22L13 21ZM15 21L15 22L16 22L16 23L15 23L15 24L16 24L16 23L18 23L18 22L16 22L16 21ZM19 21L19 22L20 22L20 21ZM12 24L12 25L13 25L13 24ZM0 0L0 7L7 7L7 0ZM1 1L1 6L6 6L6 1ZM2 2L2 5L5 5L5 2ZM18 0L18 7L25 7L25 0ZM19 1L19 6L24 6L24 1ZM20 2L20 5L23 5L23 2ZM0 18L0 25L7 25L7 18ZM1 19L1 24L6 24L6 19ZM2 20L2 23L5 23L5 20Z" fill="#000000"/></g></g></svg>
